<?xml version="1.0" encoding="utf-8" standalone="no"?>
<!DOCTYPE svg PUBLIC "-//W3C//DTD SVG 1.1//EN"
  "http://www.w3.org/Graphics/SVG/1.1/DTD/svg11.dtd">
<svg xmlns:xlink="http://www.w3.org/1999/xlink" width="1195.004063pt" height="980.779688pt" viewBox="0 0 1195.004063 980.779688" xmlns="http://www.w3.org/2000/svg" version="1.1">
 <metadata>
  <rdf:RDF xmlns:dc="http://purl.org/dc/elements/1.1/" xmlns:cc="http://creativecommons.org/ns#" xmlns:rdf="http://www.w3.org/1999/02/22-rdf-syntax-ns#">
   <cc:Work>
    <dc:type rdf:resource="http://purl.org/dc/dcmitype/StillImage"/>
    <dc:date>2023-10-10T13:09:41.448752</dc:date>
    <dc:format>image/svg+xml</dc:format>
    <dc:creator>
     <cc:Agent>
      <dc:title>Matplotlib v3.5.3, https://matplotlib.org/</dc:title>
     </cc:Agent>
    </dc:creator>
   </cc:Work>
  </rdf:RDF>
 </metadata>
 <defs>
  <style type="text/css">*{stroke-linejoin: round; stroke-linecap: butt}</style>
 </defs>
 <g id="figure_1">
  <g id="patch_1">
   <path d="M 0 980.779688 
L 1195.004063 980.779688 
L 1195.004063 0 
L 0 0 
z
" style="fill: #ffffff"/>
  </g>
  <g id="axes_1">
   <g id="patch_2">
    <path d="M 295.004063 919.995938 
L 1187.804062 919.995938 
L 1187.804062 32.955938 
L 295.004063 32.955938 
z
" style="fill: #ffffff"/>
   </g>
   <g id="matplotlib.axis_1">
    <g id="xtick_1">
     <g id="line2d_1">
      <defs>
       <path id="mcc89a56b11" d="M 0 0 
L 0 3.5 
" style="stroke: #000000; stroke-width: 0.8"/>
      </defs>
      <g>
       <use xlink:href="#mcc89a56b11" x="295.004063" y="919.995938" style="stroke: #000000; stroke-width: 0.8"/>
      </g>
     </g>
     <g id="text_1">
      <!-- 0 -->
      <g transform="translate(289.277813 940.673125)scale(0.18 -0.18)">
       <defs>
        <path id="DejaVuSans-30" d="M 2034 4250 
Q 1547 4250 1301 3770 
Q 1056 3291 1056 2328 
Q 1056 1369 1301 889 
Q 1547 409 2034 409 
Q 2525 409 2770 889 
Q 3016 1369 3016 2328 
Q 3016 3291 2770 3770 
Q 2525 4250 2034 4250 
z
M 2034 4750 
Q 2819 4750 3233 4129 
Q 3647 3509 3647 2328 
Q 3647 1150 3233 529 
Q 2819 -91 2034 -91 
Q 1250 -91 836 529 
Q 422 1150 422 2328 
Q 422 3509 836 4129 
Q 1250 4750 2034 4750 
z
" transform="scale(0.015625)"/>
       </defs>
       <use xlink:href="#DejaVuSans-30"/>
      </g>
     </g>
    </g>
    <g id="xtick_2">
     <g id="line2d_2">
      <g>
       <use xlink:href="#mcc89a56b11" x="482.537063" y="919.995938" style="stroke: #000000; stroke-width: 0.8"/>
      </g>
     </g>
     <g id="text_2">
      <!-- 2 -->
      <g transform="translate(476.810813 940.673125)scale(0.18 -0.18)">
       <defs>
        <path id="DejaVuSans-32" d="M 1228 531 
L 3431 531 
L 3431 0 
L 469 0 
L 469 531 
Q 828 903 1448 1529 
Q 2069 2156 2228 2338 
Q 2531 2678 2651 2914 
Q 2772 3150 2772 3378 
Q 2772 3750 2511 3984 
Q 2250 4219 1831 4219 
Q 1534 4219 1204 4116 
Q 875 4013 500 3803 
L 500 4441 
Q 881 4594 1212 4672 
Q 1544 4750 1819 4750 
Q 2544 4750 2975 4387 
Q 3406 4025 3406 3419 
Q 3406 3131 3298 2873 
Q 3191 2616 2906 2266 
Q 2828 2175 2409 1742 
Q 1991 1309 1228 531 
z
" transform="scale(0.015625)"/>
       </defs>
       <use xlink:href="#DejaVuSans-32"/>
      </g>
     </g>
    </g>
    <g id="xtick_3">
     <g id="line2d_3">
      <g>
       <use xlink:href="#mcc89a56b11" x="670.070063" y="919.995938" style="stroke: #000000; stroke-width: 0.8"/>
      </g>
     </g>
     <g id="text_3">
      <!-- 4 -->
      <g transform="translate(664.343813 940.673125)scale(0.18 -0.18)">
       <defs>
        <path id="DejaVuSans-34" d="M 2419 4116 
L 825 1625 
L 2419 1625 
L 2419 4116 
z
M 2253 4666 
L 3047 4666 
L 3047 1625 
L 3713 1625 
L 3713 1100 
L 3047 1100 
L 3047 0 
L 2419 0 
L 2419 1100 
L 313 1100 
L 313 1709 
L 2253 4666 
z
" transform="scale(0.015625)"/>
       </defs>
       <use xlink:href="#DejaVuSans-34"/>
      </g>
     </g>
    </g>
    <g id="xtick_4">
     <g id="line2d_4">
      <g>
       <use xlink:href="#mcc89a56b11" x="857.603063" y="919.995938" style="stroke: #000000; stroke-width: 0.8"/>
      </g>
     </g>
     <g id="text_4">
      <!-- 6 -->
      <g transform="translate(851.876813 940.673125)scale(0.18 -0.18)">
       <defs>
        <path id="DejaVuSans-36" d="M 2113 2584 
Q 1688 2584 1439 2293 
Q 1191 2003 1191 1497 
Q 1191 994 1439 701 
Q 1688 409 2113 409 
Q 2538 409 2786 701 
Q 3034 994 3034 1497 
Q 3034 2003 2786 2293 
Q 2538 2584 2113 2584 
z
M 3366 4563 
L 3366 3988 
Q 3128 4100 2886 4159 
Q 2644 4219 2406 4219 
Q 1781 4219 1451 3797 
Q 1122 3375 1075 2522 
Q 1259 2794 1537 2939 
Q 1816 3084 2150 3084 
Q 2853 3084 3261 2657 
Q 3669 2231 3669 1497 
Q 3669 778 3244 343 
Q 2819 -91 2113 -91 
Q 1303 -91 875 529 
Q 447 1150 447 2328 
Q 447 3434 972 4092 
Q 1497 4750 2381 4750 
Q 2619 4750 2861 4703 
Q 3103 4656 3366 4563 
z
" transform="scale(0.015625)"/>
       </defs>
       <use xlink:href="#DejaVuSans-36"/>
      </g>
     </g>
    </g>
    <g id="xtick_5">
     <g id="line2d_5">
      <g>
       <use xlink:href="#mcc89a56b11" x="1045.136063" y="919.995938" style="stroke: #000000; stroke-width: 0.8"/>
      </g>
     </g>
     <g id="text_5">
      <!-- 8 -->
      <g transform="translate(1039.409813 940.673125)scale(0.18 -0.18)">
       <defs>
        <path id="DejaVuSans-38" d="M 2034 2216 
Q 1584 2216 1326 1975 
Q 1069 1734 1069 1313 
Q 1069 891 1326 650 
Q 1584 409 2034 409 
Q 2484 409 2743 651 
Q 3003 894 3003 1313 
Q 3003 1734 2745 1975 
Q 2488 2216 2034 2216 
z
M 1403 2484 
Q 997 2584 770 2862 
Q 544 3141 544 3541 
Q 544 4100 942 4425 
Q 1341 4750 2034 4750 
Q 2731 4750 3128 4425 
Q 3525 4100 3525 3541 
Q 3525 3141 3298 2862 
Q 3072 2584 2669 2484 
Q 3125 2378 3379 2068 
Q 3634 1759 3634 1313 
Q 3634 634 3220 271 
Q 2806 -91 2034 -91 
Q 1263 -91 848 271 
Q 434 634 434 1313 
Q 434 1759 690 2068 
Q 947 2378 1403 2484 
z
M 1172 3481 
Q 1172 3119 1398 2916 
Q 1625 2713 2034 2713 
Q 2441 2713 2670 2916 
Q 2900 3119 2900 3481 
Q 2900 3844 2670 4047 
Q 2441 4250 2034 4250 
Q 1625 4250 1398 4047 
Q 1172 3844 1172 3481 
z
" transform="scale(0.015625)"/>
       </defs>
       <use xlink:href="#DejaVuSans-38"/>
      </g>
     </g>
    </g>
    <g id="text_6">
     <!--   -->
     <g transform="translate(737.2725 968.1725)scale(0.26 -0.26)">
      <defs>
       <path id="DejaVuSans-20" transform="scale(0.015625)"/>
      </defs>
      <use xlink:href="#DejaVuSans-20"/>
     </g>
    </g>
   </g>
   <g id="matplotlib.axis_2">
    <g id="ytick_1">
     <g id="text_7">
      <!-- Mayr, Eva -->
      <g transform="translate(159.28375 915.089906)scale(0.26 -0.26)">
       <defs>
        <path id="DejaVuSans-4d" d="M 628 4666 
L 1569 4666 
L 2759 1491 
L 3956 4666 
L 4897 4666 
L 4897 0 
L 4281 0 
L 4281 4097 
L 3078 897 
L 2444 897 
L 1241 4097 
L 1241 0 
L 628 0 
L 628 4666 
z
" transform="scale(0.015625)"/>
        <path id="DejaVuSans-61" d="M 2194 1759 
Q 1497 1759 1228 1600 
Q 959 1441 959 1056 
Q 959 750 1161 570 
Q 1363 391 1709 391 
Q 2188 391 2477 730 
Q 2766 1069 2766 1631 
L 2766 1759 
L 2194 1759 
z
M 3341 1997 
L 3341 0 
L 2766 0 
L 2766 531 
Q 2569 213 2275 61 
Q 1981 -91 1556 -91 
Q 1019 -91 701 211 
Q 384 513 384 1019 
Q 384 1609 779 1909 
Q 1175 2209 1959 2209 
L 2766 2209 
L 2766 2266 
Q 2766 2663 2505 2880 
Q 2244 3097 1772 3097 
Q 1472 3097 1187 3025 
Q 903 2953 641 2809 
L 641 3341 
Q 956 3463 1253 3523 
Q 1550 3584 1831 3584 
Q 2591 3584 2966 3190 
Q 3341 2797 3341 1997 
z
" transform="scale(0.015625)"/>
        <path id="DejaVuSans-79" d="M 2059 -325 
Q 1816 -950 1584 -1140 
Q 1353 -1331 966 -1331 
L 506 -1331 
L 506 -850 
L 844 -850 
Q 1081 -850 1212 -737 
Q 1344 -625 1503 -206 
L 1606 56 
L 191 3500 
L 800 3500 
L 1894 763 
L 2988 3500 
L 3597 3500 
L 2059 -325 
z
" transform="scale(0.015625)"/>
        <path id="DejaVuSans-72" d="M 2631 2963 
Q 2534 3019 2420 3045 
Q 2306 3072 2169 3072 
Q 1681 3072 1420 2755 
Q 1159 2438 1159 1844 
L 1159 0 
L 581 0 
L 581 3500 
L 1159 3500 
L 1159 2956 
Q 1341 3275 1631 3429 
Q 1922 3584 2338 3584 
Q 2397 3584 2469 3576 
Q 2541 3569 2628 3553 
L 2631 2963 
z
" transform="scale(0.015625)"/>
        <path id="DejaVuSans-2c" d="M 750 794 
L 1409 794 
L 1409 256 
L 897 -744 
L 494 -744 
L 750 256 
L 750 794 
z
" transform="scale(0.015625)"/>
        <path id="DejaVuSans-45" d="M 628 4666 
L 3578 4666 
L 3578 4134 
L 1259 4134 
L 1259 2753 
L 3481 2753 
L 3481 2222 
L 1259 2222 
L 1259 531 
L 3634 531 
L 3634 0 
L 628 0 
L 628 4666 
z
" transform="scale(0.015625)"/>
        <path id="DejaVuSans-76" d="M 191 3500 
L 800 3500 
L 1894 563 
L 2988 3500 
L 3597 3500 
L 2284 0 
L 1503 0 
L 191 3500 
z
" transform="scale(0.015625)"/>
       </defs>
       <use xlink:href="#DejaVuSans-4d"/>
       <use xlink:href="#DejaVuSans-61" x="86.279297"/>
       <use xlink:href="#DejaVuSans-79" x="147.558594"/>
       <use xlink:href="#DejaVuSans-72" x="206.738281"/>
       <use xlink:href="#DejaVuSans-2c" x="247.851562"/>
       <use xlink:href="#DejaVuSans-20" x="279.638672"/>
       <use xlink:href="#DejaVuSans-45" x="311.425781"/>
       <use xlink:href="#DejaVuSans-76" x="374.609375"/>
       <use xlink:href="#DejaVuSans-61" x="433.789062"/>
      </g>
     </g>
    </g>
    <g id="ytick_2">
     <g id="text_8">
      <!-- Windhager, Florian -->
      <g transform="translate(42.1375 885.521906)scale(0.26 -0.26)">
       <defs>
        <path id="DejaVuSans-57" d="M 213 4666 
L 850 4666 
L 1831 722 
L 2809 4666 
L 3519 4666 
L 4500 722 
L 5478 4666 
L 6119 4666 
L 4947 0 
L 4153 0 
L 3169 4050 
L 2175 0 
L 1381 0 
L 213 4666 
z
" transform="scale(0.015625)"/>
        <path id="DejaVuSans-69" d="M 603 3500 
L 1178 3500 
L 1178 0 
L 603 0 
L 603 3500 
z
M 603 4863 
L 1178 4863 
L 1178 4134 
L 603 4134 
L 603 4863 
z
" transform="scale(0.015625)"/>
        <path id="DejaVuSans-6e" d="M 3513 2113 
L 3513 0 
L 2938 0 
L 2938 2094 
Q 2938 2591 2744 2837 
Q 2550 3084 2163 3084 
Q 1697 3084 1428 2787 
Q 1159 2491 1159 1978 
L 1159 0 
L 581 0 
L 581 3500 
L 1159 3500 
L 1159 2956 
Q 1366 3272 1645 3428 
Q 1925 3584 2291 3584 
Q 2894 3584 3203 3211 
Q 3513 2838 3513 2113 
z
" transform="scale(0.015625)"/>
        <path id="DejaVuSans-64" d="M 2906 2969 
L 2906 4863 
L 3481 4863 
L 3481 0 
L 2906 0 
L 2906 525 
Q 2725 213 2448 61 
Q 2172 -91 1784 -91 
Q 1150 -91 751 415 
Q 353 922 353 1747 
Q 353 2572 751 3078 
Q 1150 3584 1784 3584 
Q 2172 3584 2448 3432 
Q 2725 3281 2906 2969 
z
M 947 1747 
Q 947 1113 1208 752 
Q 1469 391 1925 391 
Q 2381 391 2643 752 
Q 2906 1113 2906 1747 
Q 2906 2381 2643 2742 
Q 2381 3103 1925 3103 
Q 1469 3103 1208 2742 
Q 947 2381 947 1747 
z
" transform="scale(0.015625)"/>
        <path id="DejaVuSans-68" d="M 3513 2113 
L 3513 0 
L 2938 0 
L 2938 2094 
Q 2938 2591 2744 2837 
Q 2550 3084 2163 3084 
Q 1697 3084 1428 2787 
Q 1159 2491 1159 1978 
L 1159 0 
L 581 0 
L 581 4863 
L 1159 4863 
L 1159 2956 
Q 1366 3272 1645 3428 
Q 1925 3584 2291 3584 
Q 2894 3584 3203 3211 
Q 3513 2838 3513 2113 
z
" transform="scale(0.015625)"/>
        <path id="DejaVuSans-67" d="M 2906 1791 
Q 2906 2416 2648 2759 
Q 2391 3103 1925 3103 
Q 1463 3103 1205 2759 
Q 947 2416 947 1791 
Q 947 1169 1205 825 
Q 1463 481 1925 481 
Q 2391 481 2648 825 
Q 2906 1169 2906 1791 
z
M 3481 434 
Q 3481 -459 3084 -895 
Q 2688 -1331 1869 -1331 
Q 1566 -1331 1297 -1286 
Q 1028 -1241 775 -1147 
L 775 -588 
Q 1028 -725 1275 -790 
Q 1522 -856 1778 -856 
Q 2344 -856 2625 -561 
Q 2906 -266 2906 331 
L 2906 616 
Q 2728 306 2450 153 
Q 2172 0 1784 0 
Q 1141 0 747 490 
Q 353 981 353 1791 
Q 353 2603 747 3093 
Q 1141 3584 1784 3584 
Q 2172 3584 2450 3431 
Q 2728 3278 2906 2969 
L 2906 3500 
L 3481 3500 
L 3481 434 
z
" transform="scale(0.015625)"/>
        <path id="DejaVuSans-65" d="M 3597 1894 
L 3597 1613 
L 953 1613 
Q 991 1019 1311 708 
Q 1631 397 2203 397 
Q 2534 397 2845 478 
Q 3156 559 3463 722 
L 3463 178 
Q 3153 47 2828 -22 
Q 2503 -91 2169 -91 
Q 1331 -91 842 396 
Q 353 884 353 1716 
Q 353 2575 817 3079 
Q 1281 3584 2069 3584 
Q 2775 3584 3186 3129 
Q 3597 2675 3597 1894 
z
M 3022 2063 
Q 3016 2534 2758 2815 
Q 2500 3097 2075 3097 
Q 1594 3097 1305 2825 
Q 1016 2553 972 2059 
L 3022 2063 
z
" transform="scale(0.015625)"/>
        <path id="DejaVuSans-46" d="M 628 4666 
L 3309 4666 
L 3309 4134 
L 1259 4134 
L 1259 2759 
L 3109 2759 
L 3109 2228 
L 1259 2228 
L 1259 0 
L 628 0 
L 628 4666 
z
" transform="scale(0.015625)"/>
        <path id="DejaVuSans-6c" d="M 603 4863 
L 1178 4863 
L 1178 0 
L 603 0 
L 603 4863 
z
" transform="scale(0.015625)"/>
        <path id="DejaVuSans-6f" d="M 1959 3097 
Q 1497 3097 1228 2736 
Q 959 2375 959 1747 
Q 959 1119 1226 758 
Q 1494 397 1959 397 
Q 2419 397 2687 759 
Q 2956 1122 2956 1747 
Q 2956 2369 2687 2733 
Q 2419 3097 1959 3097 
z
M 1959 3584 
Q 2709 3584 3137 3096 
Q 3566 2609 3566 1747 
Q 3566 888 3137 398 
Q 2709 -91 1959 -91 
Q 1206 -91 779 398 
Q 353 888 353 1747 
Q 353 2609 779 3096 
Q 1206 3584 1959 3584 
z
" transform="scale(0.015625)"/>
       </defs>
       <use xlink:href="#DejaVuSans-57"/>
       <use xlink:href="#DejaVuSans-69" x="96.626953"/>
       <use xlink:href="#DejaVuSans-6e" x="124.410156"/>
       <use xlink:href="#DejaVuSans-64" x="187.789062"/>
       <use xlink:href="#DejaVuSans-68" x="251.265625"/>
       <use xlink:href="#DejaVuSans-61" x="314.644531"/>
       <use xlink:href="#DejaVuSans-67" x="375.923828"/>
       <use xlink:href="#DejaVuSans-65" x="439.400391"/>
       <use xlink:href="#DejaVuSans-72" x="500.923828"/>
       <use xlink:href="#DejaVuSans-2c" x="542.037109"/>
       <use xlink:href="#DejaVuSans-20" x="573.824219"/>
       <use xlink:href="#DejaVuSans-46" x="605.611328"/>
       <use xlink:href="#DejaVuSans-6c" x="663.130859"/>
       <use xlink:href="#DejaVuSans-6f" x="690.914062"/>
       <use xlink:href="#DejaVuSans-72" x="752.095703"/>
       <use xlink:href="#DejaVuSans-69" x="793.208984"/>
       <use xlink:href="#DejaVuSans-61" x="820.992188"/>
       <use xlink:href="#DejaVuSans-6e" x="882.271484"/>
      </g>
     </g>
    </g>
    <g id="ytick_3">
     <g id="text_9">
      <!-- Burghardt, Manuel -->
      <g transform="translate(46.537188 855.953906)scale(0.26 -0.26)">
       <defs>
        <path id="DejaVuSans-42" d="M 1259 2228 
L 1259 519 
L 2272 519 
Q 2781 519 3026 730 
Q 3272 941 3272 1375 
Q 3272 1813 3026 2020 
Q 2781 2228 2272 2228 
L 1259 2228 
z
M 1259 4147 
L 1259 2741 
L 2194 2741 
Q 2656 2741 2882 2914 
Q 3109 3088 3109 3444 
Q 3109 3797 2882 3972 
Q 2656 4147 2194 4147 
L 1259 4147 
z
M 628 4666 
L 2241 4666 
Q 2963 4666 3353 4366 
Q 3744 4066 3744 3513 
Q 3744 3084 3544 2831 
Q 3344 2578 2956 2516 
Q 3422 2416 3680 2098 
Q 3938 1781 3938 1306 
Q 3938 681 3513 340 
Q 3088 0 2303 0 
L 628 0 
L 628 4666 
z
" transform="scale(0.015625)"/>
        <path id="DejaVuSans-75" d="M 544 1381 
L 544 3500 
L 1119 3500 
L 1119 1403 
Q 1119 906 1312 657 
Q 1506 409 1894 409 
Q 2359 409 2629 706 
Q 2900 1003 2900 1516 
L 2900 3500 
L 3475 3500 
L 3475 0 
L 2900 0 
L 2900 538 
Q 2691 219 2414 64 
Q 2138 -91 1772 -91 
Q 1169 -91 856 284 
Q 544 659 544 1381 
z
M 1991 3584 
L 1991 3584 
z
" transform="scale(0.015625)"/>
        <path id="DejaVuSans-74" d="M 1172 4494 
L 1172 3500 
L 2356 3500 
L 2356 3053 
L 1172 3053 
L 1172 1153 
Q 1172 725 1289 603 
Q 1406 481 1766 481 
L 2356 481 
L 2356 0 
L 1766 0 
Q 1100 0 847 248 
Q 594 497 594 1153 
L 594 3053 
L 172 3053 
L 172 3500 
L 594 3500 
L 594 4494 
L 1172 4494 
z
" transform="scale(0.015625)"/>
       </defs>
       <use xlink:href="#DejaVuSans-42"/>
       <use xlink:href="#DejaVuSans-75" x="68.603516"/>
       <use xlink:href="#DejaVuSans-72" x="131.982422"/>
       <use xlink:href="#DejaVuSans-67" x="171.345703"/>
       <use xlink:href="#DejaVuSans-68" x="234.822266"/>
       <use xlink:href="#DejaVuSans-61" x="298.201172"/>
       <use xlink:href="#DejaVuSans-72" x="359.480469"/>
       <use xlink:href="#DejaVuSans-64" x="398.84375"/>
       <use xlink:href="#DejaVuSans-74" x="462.320312"/>
       <use xlink:href="#DejaVuSans-2c" x="501.529297"/>
       <use xlink:href="#DejaVuSans-20" x="533.316406"/>
       <use xlink:href="#DejaVuSans-4d" x="565.103516"/>
       <use xlink:href="#DejaVuSans-61" x="651.382812"/>
       <use xlink:href="#DejaVuSans-6e" x="712.662109"/>
       <use xlink:href="#DejaVuSans-75" x="776.041016"/>
       <use xlink:href="#DejaVuSans-65" x="839.419922"/>
       <use xlink:href="#DejaVuSans-6c" x="900.943359"/>
      </g>
     </g>
    </g>
    <g id="ytick_4">
     <g id="text_10">
      <!-- Schrade, Torsten -->
      <g transform="translate(70.8025 826.385906)scale(0.26 -0.26)">
       <defs>
        <path id="DejaVuSans-53" d="M 3425 4513 
L 3425 3897 
Q 3066 4069 2747 4153 
Q 2428 4238 2131 4238 
Q 1616 4238 1336 4038 
Q 1056 3838 1056 3469 
Q 1056 3159 1242 3001 
Q 1428 2844 1947 2747 
L 2328 2669 
Q 3034 2534 3370 2195 
Q 3706 1856 3706 1288 
Q 3706 609 3251 259 
Q 2797 -91 1919 -91 
Q 1588 -91 1214 -16 
Q 841 59 441 206 
L 441 856 
Q 825 641 1194 531 
Q 1563 422 1919 422 
Q 2459 422 2753 634 
Q 3047 847 3047 1241 
Q 3047 1584 2836 1778 
Q 2625 1972 2144 2069 
L 1759 2144 
Q 1053 2284 737 2584 
Q 422 2884 422 3419 
Q 422 4038 858 4394 
Q 1294 4750 2059 4750 
Q 2388 4750 2728 4690 
Q 3069 4631 3425 4513 
z
" transform="scale(0.015625)"/>
        <path id="DejaVuSans-63" d="M 3122 3366 
L 3122 2828 
Q 2878 2963 2633 3030 
Q 2388 3097 2138 3097 
Q 1578 3097 1268 2742 
Q 959 2388 959 1747 
Q 959 1106 1268 751 
Q 1578 397 2138 397 
Q 2388 397 2633 464 
Q 2878 531 3122 666 
L 3122 134 
Q 2881 22 2623 -34 
Q 2366 -91 2075 -91 
Q 1284 -91 818 406 
Q 353 903 353 1747 
Q 353 2603 823 3093 
Q 1294 3584 2113 3584 
Q 2378 3584 2631 3529 
Q 2884 3475 3122 3366 
z
" transform="scale(0.015625)"/>
        <path id="DejaVuSans-54" d="M -19 4666 
L 3928 4666 
L 3928 4134 
L 2272 4134 
L 2272 0 
L 1638 0 
L 1638 4134 
L -19 4134 
L -19 4666 
z
" transform="scale(0.015625)"/>
        <path id="DejaVuSans-73" d="M 2834 3397 
L 2834 2853 
Q 2591 2978 2328 3040 
Q 2066 3103 1784 3103 
Q 1356 3103 1142 2972 
Q 928 2841 928 2578 
Q 928 2378 1081 2264 
Q 1234 2150 1697 2047 
L 1894 2003 
Q 2506 1872 2764 1633 
Q 3022 1394 3022 966 
Q 3022 478 2636 193 
Q 2250 -91 1575 -91 
Q 1294 -91 989 -36 
Q 684 19 347 128 
L 347 722 
Q 666 556 975 473 
Q 1284 391 1588 391 
Q 1994 391 2212 530 
Q 2431 669 2431 922 
Q 2431 1156 2273 1281 
Q 2116 1406 1581 1522 
L 1381 1569 
Q 847 1681 609 1914 
Q 372 2147 372 2553 
Q 372 3047 722 3315 
Q 1072 3584 1716 3584 
Q 2034 3584 2315 3537 
Q 2597 3491 2834 3397 
z
" transform="scale(0.015625)"/>
       </defs>
       <use xlink:href="#DejaVuSans-53"/>
       <use xlink:href="#DejaVuSans-63" x="63.476562"/>
       <use xlink:href="#DejaVuSans-68" x="118.457031"/>
       <use xlink:href="#DejaVuSans-72" x="181.835938"/>
       <use xlink:href="#DejaVuSans-61" x="222.949219"/>
       <use xlink:href="#DejaVuSans-64" x="284.228516"/>
       <use xlink:href="#DejaVuSans-65" x="347.705078"/>
       <use xlink:href="#DejaVuSans-2c" x="409.228516"/>
       <use xlink:href="#DejaVuSans-20" x="441.015625"/>
       <use xlink:href="#DejaVuSans-54" x="472.802734"/>
       <use xlink:href="#DejaVuSans-6f" x="516.886719"/>
       <use xlink:href="#DejaVuSans-72" x="578.068359"/>
       <use xlink:href="#DejaVuSans-73" x="619.181641"/>
       <use xlink:href="#DejaVuSans-74" x="671.28125"/>
       <use xlink:href="#DejaVuSans-65" x="710.490234"/>
       <use xlink:href="#DejaVuSans-6e" x="772.013672"/>
      </g>
     </g>
    </g>
    <g id="ytick_5">
     <g id="text_11">
      <!-- Wuttke, Ulrike -->
      <g transform="translate(105.46375 796.817906)scale(0.26 -0.26)">
       <defs>
        <path id="DejaVuSans-6b" d="M 581 4863 
L 1159 4863 
L 1159 1991 
L 2875 3500 
L 3609 3500 
L 1753 1863 
L 3688 0 
L 2938 0 
L 1159 1709 
L 1159 0 
L 581 0 
L 581 4863 
z
" transform="scale(0.015625)"/>
        <path id="DejaVuSans-55" d="M 556 4666 
L 1191 4666 
L 1191 1831 
Q 1191 1081 1462 751 
Q 1734 422 2344 422 
Q 2950 422 3222 751 
Q 3494 1081 3494 1831 
L 3494 4666 
L 4128 4666 
L 4128 1753 
Q 4128 841 3676 375 
Q 3225 -91 2344 -91 
Q 1459 -91 1007 375 
Q 556 841 556 1753 
L 556 4666 
z
" transform="scale(0.015625)"/>
       </defs>
       <use xlink:href="#DejaVuSans-57"/>
       <use xlink:href="#DejaVuSans-75" x="95.251953"/>
       <use xlink:href="#DejaVuSans-74" x="158.630859"/>
       <use xlink:href="#DejaVuSans-74" x="197.839844"/>
       <use xlink:href="#DejaVuSans-6b" x="237.048828"/>
       <use xlink:href="#DejaVuSans-65" x="291.333984"/>
       <use xlink:href="#DejaVuSans-2c" x="352.857422"/>
       <use xlink:href="#DejaVuSans-20" x="384.644531"/>
       <use xlink:href="#DejaVuSans-55" x="416.431641"/>
       <use xlink:href="#DejaVuSans-6c" x="489.625"/>
       <use xlink:href="#DejaVuSans-72" x="517.408203"/>
       <use xlink:href="#DejaVuSans-69" x="558.521484"/>
       <use xlink:href="#DejaVuSans-6b" x="586.304688"/>
       <use xlink:href="#DejaVuSans-65" x="640.589844"/>
      </g>
     </g>
    </g>
    <g id="ytick_6">
     <g id="text_12">
      <!-- Horstmann, Jan -->
      <g transform="translate(87.29625 767.249906)scale(0.26 -0.26)">
       <defs>
        <path id="DejaVuSans-48" d="M 628 4666 
L 1259 4666 
L 1259 2753 
L 3553 2753 
L 3553 4666 
L 4184 4666 
L 4184 0 
L 3553 0 
L 3553 2222 
L 1259 2222 
L 1259 0 
L 628 0 
L 628 4666 
z
" transform="scale(0.015625)"/>
        <path id="DejaVuSans-6d" d="M 3328 2828 
Q 3544 3216 3844 3400 
Q 4144 3584 4550 3584 
Q 5097 3584 5394 3201 
Q 5691 2819 5691 2113 
L 5691 0 
L 5113 0 
L 5113 2094 
Q 5113 2597 4934 2840 
Q 4756 3084 4391 3084 
Q 3944 3084 3684 2787 
Q 3425 2491 3425 1978 
L 3425 0 
L 2847 0 
L 2847 2094 
Q 2847 2600 2669 2842 
Q 2491 3084 2119 3084 
Q 1678 3084 1418 2786 
Q 1159 2488 1159 1978 
L 1159 0 
L 581 0 
L 581 3500 
L 1159 3500 
L 1159 2956 
Q 1356 3278 1631 3431 
Q 1906 3584 2284 3584 
Q 2666 3584 2933 3390 
Q 3200 3197 3328 2828 
z
" transform="scale(0.015625)"/>
        <path id="DejaVuSans-4a" d="M 628 4666 
L 1259 4666 
L 1259 325 
Q 1259 -519 939 -900 
Q 619 -1281 -91 -1281 
L -331 -1281 
L -331 -750 
L -134 -750 
Q 284 -750 456 -515 
Q 628 -281 628 325 
L 628 4666 
z
" transform="scale(0.015625)"/>
       </defs>
       <use xlink:href="#DejaVuSans-48"/>
       <use xlink:href="#DejaVuSans-6f" x="75.195312"/>
       <use xlink:href="#DejaVuSans-72" x="136.376953"/>
       <use xlink:href="#DejaVuSans-73" x="177.490234"/>
       <use xlink:href="#DejaVuSans-74" x="229.589844"/>
       <use xlink:href="#DejaVuSans-6d" x="268.798828"/>
       <use xlink:href="#DejaVuSans-61" x="366.210938"/>
       <use xlink:href="#DejaVuSans-6e" x="427.490234"/>
       <use xlink:href="#DejaVuSans-6e" x="490.869141"/>
       <use xlink:href="#DejaVuSans-2c" x="554.248047"/>
       <use xlink:href="#DejaVuSans-20" x="586.035156"/>
       <use xlink:href="#DejaVuSans-4a" x="617.822266"/>
       <use xlink:href="#DejaVuSans-61" x="647.314453"/>
       <use xlink:href="#DejaVuSans-6e" x="708.59375"/>
      </g>
     </g>
    </g>
    <g id="ytick_7">
     <g id="text_13">
      <!-- Schumacher, Mareike -->
      <g transform="translate(7.2 737.681906)scale(0.26 -0.26)">
       <use xlink:href="#DejaVuSans-53"/>
       <use xlink:href="#DejaVuSans-63" x="63.476562"/>
       <use xlink:href="#DejaVuSans-68" x="118.457031"/>
       <use xlink:href="#DejaVuSans-75" x="181.835938"/>
       <use xlink:href="#DejaVuSans-6d" x="245.214844"/>
       <use xlink:href="#DejaVuSans-61" x="342.626953"/>
       <use xlink:href="#DejaVuSans-63" x="403.90625"/>
       <use xlink:href="#DejaVuSans-68" x="458.886719"/>
       <use xlink:href="#DejaVuSans-65" x="522.265625"/>
       <use xlink:href="#DejaVuSans-72" x="583.789062"/>
       <use xlink:href="#DejaVuSans-2c" x="624.902344"/>
       <use xlink:href="#DejaVuSans-20" x="656.689453"/>
       <use xlink:href="#DejaVuSans-4d" x="688.476562"/>
       <use xlink:href="#DejaVuSans-61" x="774.755859"/>
       <use xlink:href="#DejaVuSans-72" x="836.035156"/>
       <use xlink:href="#DejaVuSans-65" x="874.898438"/>
       <use xlink:href="#DejaVuSans-69" x="936.421875"/>
       <use xlink:href="#DejaVuSans-6b" x="964.205078"/>
       <use xlink:href="#DejaVuSans-65" x="1018.490234"/>
      </g>
     </g>
    </g>
    <g id="ytick_8">
     <g id="text_14">
      <!-- Jannidis, Fotis -->
      <g transform="translate(109.5425 708.113906)scale(0.26 -0.26)">
       <use xlink:href="#DejaVuSans-4a"/>
       <use xlink:href="#DejaVuSans-61" x="29.492188"/>
       <use xlink:href="#DejaVuSans-6e" x="90.771484"/>
       <use xlink:href="#DejaVuSans-6e" x="154.150391"/>
       <use xlink:href="#DejaVuSans-69" x="217.529297"/>
       <use xlink:href="#DejaVuSans-64" x="245.3125"/>
       <use xlink:href="#DejaVuSans-69" x="308.789062"/>
       <use xlink:href="#DejaVuSans-73" x="336.572266"/>
       <use xlink:href="#DejaVuSans-2c" x="388.671875"/>
       <use xlink:href="#DejaVuSans-20" x="420.458984"/>
       <use xlink:href="#DejaVuSans-46" x="452.246094"/>
       <use xlink:href="#DejaVuSans-6f" x="506.140625"/>
       <use xlink:href="#DejaVuSans-74" x="567.322266"/>
       <use xlink:href="#DejaVuSans-69" x="606.53125"/>
       <use xlink:href="#DejaVuSans-73" x="634.314453"/>
      </g>
     </g>
    </g>
    <g id="ytick_9">
     <g id="text_15">
      <!-- Reul, Christian -->
      <g transform="translate(98.967813 678.545906)scale(0.26 -0.26)">
       <defs>
        <path id="DejaVuSans-52" d="M 2841 2188 
Q 3044 2119 3236 1894 
Q 3428 1669 3622 1275 
L 4263 0 
L 3584 0 
L 2988 1197 
Q 2756 1666 2539 1819 
Q 2322 1972 1947 1972 
L 1259 1972 
L 1259 0 
L 628 0 
L 628 4666 
L 2053 4666 
Q 2853 4666 3247 4331 
Q 3641 3997 3641 3322 
Q 3641 2881 3436 2590 
Q 3231 2300 2841 2188 
z
M 1259 4147 
L 1259 2491 
L 2053 2491 
Q 2509 2491 2742 2702 
Q 2975 2913 2975 3322 
Q 2975 3731 2742 3939 
Q 2509 4147 2053 4147 
L 1259 4147 
z
" transform="scale(0.015625)"/>
        <path id="DejaVuSans-43" d="M 4122 4306 
L 4122 3641 
Q 3803 3938 3442 4084 
Q 3081 4231 2675 4231 
Q 1875 4231 1450 3742 
Q 1025 3253 1025 2328 
Q 1025 1406 1450 917 
Q 1875 428 2675 428 
Q 3081 428 3442 575 
Q 3803 722 4122 1019 
L 4122 359 
Q 3791 134 3420 21 
Q 3050 -91 2638 -91 
Q 1578 -91 968 557 
Q 359 1206 359 2328 
Q 359 3453 968 4101 
Q 1578 4750 2638 4750 
Q 3056 4750 3426 4639 
Q 3797 4528 4122 4306 
z
" transform="scale(0.015625)"/>
       </defs>
       <use xlink:href="#DejaVuSans-52"/>
       <use xlink:href="#DejaVuSans-65" x="64.982422"/>
       <use xlink:href="#DejaVuSans-75" x="126.505859"/>
       <use xlink:href="#DejaVuSans-6c" x="189.884766"/>
       <use xlink:href="#DejaVuSans-2c" x="217.667969"/>
       <use xlink:href="#DejaVuSans-20" x="249.455078"/>
       <use xlink:href="#DejaVuSans-43" x="281.242188"/>
       <use xlink:href="#DejaVuSans-68" x="351.066406"/>
       <use xlink:href="#DejaVuSans-72" x="414.445312"/>
       <use xlink:href="#DejaVuSans-69" x="455.558594"/>
       <use xlink:href="#DejaVuSans-73" x="483.341797"/>
       <use xlink:href="#DejaVuSans-74" x="535.441406"/>
       <use xlink:href="#DejaVuSans-69" x="574.650391"/>
       <use xlink:href="#DejaVuSans-61" x="602.433594"/>
       <use xlink:href="#DejaVuSans-6e" x="663.712891"/>
      </g>
     </g>
    </g>
    <g id="ytick_10">
     <g id="text_16">
      <!-- Wolff, Christian -->
      <g transform="translate(89.945 648.977906)scale(0.26 -0.26)">
       <defs>
        <path id="DejaVuSans-66" d="M 2375 4863 
L 2375 4384 
L 1825 4384 
Q 1516 4384 1395 4259 
Q 1275 4134 1275 3809 
L 1275 3500 
L 2222 3500 
L 2222 3053 
L 1275 3053 
L 1275 0 
L 697 0 
L 697 3053 
L 147 3053 
L 147 3500 
L 697 3500 
L 697 3744 
Q 697 4328 969 4595 
Q 1241 4863 1831 4863 
L 2375 4863 
z
" transform="scale(0.015625)"/>
       </defs>
       <use xlink:href="#DejaVuSans-57"/>
       <use xlink:href="#DejaVuSans-6f" x="93.001953"/>
       <use xlink:href="#DejaVuSans-6c" x="154.183594"/>
       <use xlink:href="#DejaVuSans-66" x="181.966797"/>
       <use xlink:href="#DejaVuSans-66" x="217.171875"/>
       <use xlink:href="#DejaVuSans-2c" x="252.376953"/>
       <use xlink:href="#DejaVuSans-20" x="284.164062"/>
       <use xlink:href="#DejaVuSans-43" x="315.951172"/>
       <use xlink:href="#DejaVuSans-68" x="385.775391"/>
       <use xlink:href="#DejaVuSans-72" x="449.154297"/>
       <use xlink:href="#DejaVuSans-69" x="490.267578"/>
       <use xlink:href="#DejaVuSans-73" x="518.050781"/>
       <use xlink:href="#DejaVuSans-74" x="570.150391"/>
       <use xlink:href="#DejaVuSans-69" x="609.359375"/>
       <use xlink:href="#DejaVuSans-61" x="637.142578"/>
       <use xlink:href="#DejaVuSans-6e" x="698.421875"/>
      </g>
     </g>
    </g>
    <g id="ytick_11">
     <g id="text_17">
      <!-- Baillot, Anne -->
      <g transform="translate(123.196563 619.409906)scale(0.26 -0.26)">
       <defs>
        <path id="DejaVuSans-41" d="M 2188 4044 
L 1331 1722 
L 3047 1722 
L 2188 4044 
z
M 1831 4666 
L 2547 4666 
L 4325 0 
L 3669 0 
L 3244 1197 
L 1141 1197 
L 716 0 
L 50 0 
L 1831 4666 
z
" transform="scale(0.015625)"/>
       </defs>
       <use xlink:href="#DejaVuSans-42"/>
       <use xlink:href="#DejaVuSans-61" x="68.603516"/>
       <use xlink:href="#DejaVuSans-69" x="129.882812"/>
       <use xlink:href="#DejaVuSans-6c" x="157.666016"/>
       <use xlink:href="#DejaVuSans-6c" x="185.449219"/>
       <use xlink:href="#DejaVuSans-6f" x="213.232422"/>
       <use xlink:href="#DejaVuSans-74" x="274.414062"/>
       <use xlink:href="#DejaVuSans-2c" x="313.623047"/>
       <use xlink:href="#DejaVuSans-20" x="345.410156"/>
       <use xlink:href="#DejaVuSans-41" x="377.197266"/>
       <use xlink:href="#DejaVuSans-6e" x="445.605469"/>
       <use xlink:href="#DejaVuSans-6e" x="508.984375"/>
       <use xlink:href="#DejaVuSans-65" x="572.363281"/>
      </g>
     </g>
    </g>
    <g id="ytick_12">
     <g id="text_18">
      <!-- Vogeler, Georg -->
      <g transform="translate(94.5925 589.841906)scale(0.26 -0.26)">
       <defs>
        <path id="DejaVuSans-56" d="M 1831 0 
L 50 4666 
L 709 4666 
L 2188 738 
L 3669 4666 
L 4325 4666 
L 2547 0 
L 1831 0 
z
" transform="scale(0.015625)"/>
        <path id="DejaVuSans-47" d="M 3809 666 
L 3809 1919 
L 2778 1919 
L 2778 2438 
L 4434 2438 
L 4434 434 
Q 4069 175 3628 42 
Q 3188 -91 2688 -91 
Q 1594 -91 976 548 
Q 359 1188 359 2328 
Q 359 3472 976 4111 
Q 1594 4750 2688 4750 
Q 3144 4750 3555 4637 
Q 3966 4525 4313 4306 
L 4313 3634 
Q 3963 3931 3569 4081 
Q 3175 4231 2741 4231 
Q 1884 4231 1454 3753 
Q 1025 3275 1025 2328 
Q 1025 1384 1454 906 
Q 1884 428 2741 428 
Q 3075 428 3337 486 
Q 3600 544 3809 666 
z
" transform="scale(0.015625)"/>
       </defs>
       <use xlink:href="#DejaVuSans-56"/>
       <use xlink:href="#DejaVuSans-6f" x="60.658203"/>
       <use xlink:href="#DejaVuSans-67" x="121.839844"/>
       <use xlink:href="#DejaVuSans-65" x="185.316406"/>
       <use xlink:href="#DejaVuSans-6c" x="246.839844"/>
       <use xlink:href="#DejaVuSans-65" x="274.623047"/>
       <use xlink:href="#DejaVuSans-72" x="336.146484"/>
       <use xlink:href="#DejaVuSans-2c" x="377.259766"/>
       <use xlink:href="#DejaVuSans-20" x="409.046875"/>
       <use xlink:href="#DejaVuSans-47" x="440.833984"/>
       <use xlink:href="#DejaVuSans-65" x="518.324219"/>
       <use xlink:href="#DejaVuSans-6f" x="579.847656"/>
       <use xlink:href="#DejaVuSans-72" x="641.029297"/>
       <use xlink:href="#DejaVuSans-67" x="680.392578"/>
      </g>
     </g>
    </g>
    <g id="ytick_13">
     <g id="text_19">
      <!-- Dörk, Marian -->
      <g transform="translate(121.116563 560.273906)scale(0.26 -0.26)">
       <defs>
        <path id="DejaVuSans-44" d="M 1259 4147 
L 1259 519 
L 2022 519 
Q 2988 519 3436 956 
Q 3884 1394 3884 2338 
Q 3884 3275 3436 3711 
Q 2988 4147 2022 4147 
L 1259 4147 
z
M 628 4666 
L 1925 4666 
Q 3281 4666 3915 4102 
Q 4550 3538 4550 2338 
Q 4550 1131 3912 565 
Q 3275 0 1925 0 
L 628 0 
L 628 4666 
z
" transform="scale(0.015625)"/>
        <path id="DejaVuSans-f6" d="M 1959 3097 
Q 1497 3097 1228 2736 
Q 959 2375 959 1747 
Q 959 1119 1226 758 
Q 1494 397 1959 397 
Q 2419 397 2687 759 
Q 2956 1122 2956 1747 
Q 2956 2369 2687 2733 
Q 2419 3097 1959 3097 
z
M 1959 3584 
Q 2709 3584 3137 3096 
Q 3566 2609 3566 1747 
Q 3566 888 3137 398 
Q 2709 -91 1959 -91 
Q 1206 -91 779 398 
Q 353 888 353 1747 
Q 353 2609 779 3096 
Q 1206 3584 1959 3584 
z
M 2254 4850 
L 2888 4850 
L 2888 4219 
L 2254 4219 
L 2254 4850 
z
M 1032 4850 
L 1666 4850 
L 1666 4219 
L 1032 4219 
L 1032 4850 
z
" transform="scale(0.015625)"/>
       </defs>
       <use xlink:href="#DejaVuSans-44"/>
       <use xlink:href="#DejaVuSans-f6" x="77.001953"/>
       <use xlink:href="#DejaVuSans-72" x="138.183594"/>
       <use xlink:href="#DejaVuSans-6b" x="179.296875"/>
       <use xlink:href="#DejaVuSans-2c" x="237.207031"/>
       <use xlink:href="#DejaVuSans-20" x="268.994141"/>
       <use xlink:href="#DejaVuSans-4d" x="300.78125"/>
       <use xlink:href="#DejaVuSans-61" x="387.060547"/>
       <use xlink:href="#DejaVuSans-72" x="448.339844"/>
       <use xlink:href="#DejaVuSans-69" x="489.453125"/>
       <use xlink:href="#DejaVuSans-61" x="517.236328"/>
       <use xlink:href="#DejaVuSans-6e" x="578.515625"/>
      </g>
     </g>
    </g>
    <g id="ytick_14">
     <g id="text_20">
      <!-- Schmidt, Thomas -->
      <g transform="translate(61.88125 530.705906)scale(0.26 -0.26)">
       <use xlink:href="#DejaVuSans-53"/>
       <use xlink:href="#DejaVuSans-63" x="63.476562"/>
       <use xlink:href="#DejaVuSans-68" x="118.457031"/>
       <use xlink:href="#DejaVuSans-6d" x="181.835938"/>
       <use xlink:href="#DejaVuSans-69" x="279.248047"/>
       <use xlink:href="#DejaVuSans-64" x="307.03125"/>
       <use xlink:href="#DejaVuSans-74" x="370.507812"/>
       <use xlink:href="#DejaVuSans-2c" x="409.716797"/>
       <use xlink:href="#DejaVuSans-20" x="441.503906"/>
       <use xlink:href="#DejaVuSans-54" x="473.291016"/>
       <use xlink:href="#DejaVuSans-68" x="534.375"/>
       <use xlink:href="#DejaVuSans-6f" x="597.753906"/>
       <use xlink:href="#DejaVuSans-6d" x="658.935547"/>
       <use xlink:href="#DejaVuSans-61" x="756.347656"/>
       <use xlink:href="#DejaVuSans-73" x="817.626953"/>
      </g>
     </g>
    </g>
    <g id="ytick_15">
     <g id="text_21">
      <!-- Krautter, Benjamin -->
      <g transform="translate(41.759688 501.137906)scale(0.26 -0.26)">
       <defs>
        <path id="DejaVuSans-4b" d="M 628 4666 
L 1259 4666 
L 1259 2694 
L 3353 4666 
L 4166 4666 
L 1850 2491 
L 4331 0 
L 3500 0 
L 1259 2247 
L 1259 0 
L 628 0 
L 628 4666 
z
" transform="scale(0.015625)"/>
        <path id="DejaVuSans-6a" d="M 603 3500 
L 1178 3500 
L 1178 -63 
Q 1178 -731 923 -1031 
Q 669 -1331 103 -1331 
L -116 -1331 
L -116 -844 
L 38 -844 
Q 366 -844 484 -692 
Q 603 -541 603 -63 
L 603 3500 
z
M 603 4863 
L 1178 4863 
L 1178 4134 
L 603 4134 
L 603 4863 
z
" transform="scale(0.015625)"/>
       </defs>
       <use xlink:href="#DejaVuSans-4b"/>
       <use xlink:href="#DejaVuSans-72" x="65.576172"/>
       <use xlink:href="#DejaVuSans-61" x="106.689453"/>
       <use xlink:href="#DejaVuSans-75" x="167.96875"/>
       <use xlink:href="#DejaVuSans-74" x="231.347656"/>
       <use xlink:href="#DejaVuSans-74" x="270.556641"/>
       <use xlink:href="#DejaVuSans-65" x="309.765625"/>
       <use xlink:href="#DejaVuSans-72" x="371.289062"/>
       <use xlink:href="#DejaVuSans-2c" x="412.402344"/>
       <use xlink:href="#DejaVuSans-20" x="444.189453"/>
       <use xlink:href="#DejaVuSans-42" x="475.976562"/>
       <use xlink:href="#DejaVuSans-65" x="544.580078"/>
       <use xlink:href="#DejaVuSans-6e" x="606.103516"/>
       <use xlink:href="#DejaVuSans-6a" x="669.482422"/>
       <use xlink:href="#DejaVuSans-61" x="697.265625"/>
       <use xlink:href="#DejaVuSans-6d" x="758.544922"/>
       <use xlink:href="#DejaVuSans-69" x="855.957031"/>
       <use xlink:href="#DejaVuSans-6e" x="883.740234"/>
      </g>
     </g>
    </g>
    <g id="ytick_16">
     <g id="text_22">
      <!-- Neuefeind, Claes -->
      <g transform="translate(67.34125 471.569906)scale(0.26 -0.26)">
       <defs>
        <path id="DejaVuSans-4e" d="M 628 4666 
L 1478 4666 
L 3547 763 
L 3547 4666 
L 4159 4666 
L 4159 0 
L 3309 0 
L 1241 3903 
L 1241 0 
L 628 0 
L 628 4666 
z
" transform="scale(0.015625)"/>
       </defs>
       <use xlink:href="#DejaVuSans-4e"/>
       <use xlink:href="#DejaVuSans-65" x="74.804688"/>
       <use xlink:href="#DejaVuSans-75" x="136.328125"/>
       <use xlink:href="#DejaVuSans-65" x="199.707031"/>
       <use xlink:href="#DejaVuSans-66" x="261.230469"/>
       <use xlink:href="#DejaVuSans-65" x="296.435547"/>
       <use xlink:href="#DejaVuSans-69" x="357.958984"/>
       <use xlink:href="#DejaVuSans-6e" x="385.742188"/>
       <use xlink:href="#DejaVuSans-64" x="449.121094"/>
       <use xlink:href="#DejaVuSans-2c" x="512.597656"/>
       <use xlink:href="#DejaVuSans-20" x="544.384766"/>
       <use xlink:href="#DejaVuSans-43" x="576.171875"/>
       <use xlink:href="#DejaVuSans-6c" x="645.996094"/>
       <use xlink:href="#DejaVuSans-61" x="673.779297"/>
       <use xlink:href="#DejaVuSans-65" x="735.058594"/>
       <use xlink:href="#DejaVuSans-73" x="796.582031"/>
      </g>
     </g>
    </g>
    <g id="ytick_17">
     <g id="text_23">
      <!-- Pielström, Steffen -->
      <g transform="translate(57.388125 442.001906)scale(0.26 -0.26)">
       <defs>
        <path id="DejaVuSans-50" d="M 1259 4147 
L 1259 2394 
L 2053 2394 
Q 2494 2394 2734 2622 
Q 2975 2850 2975 3272 
Q 2975 3691 2734 3919 
Q 2494 4147 2053 4147 
L 1259 4147 
z
M 628 4666 
L 2053 4666 
Q 2838 4666 3239 4311 
Q 3641 3956 3641 3272 
Q 3641 2581 3239 2228 
Q 2838 1875 2053 1875 
L 1259 1875 
L 1259 0 
L 628 0 
L 628 4666 
z
" transform="scale(0.015625)"/>
       </defs>
       <use xlink:href="#DejaVuSans-50"/>
       <use xlink:href="#DejaVuSans-69" x="58.052734"/>
       <use xlink:href="#DejaVuSans-65" x="85.835938"/>
       <use xlink:href="#DejaVuSans-6c" x="147.359375"/>
       <use xlink:href="#DejaVuSans-73" x="175.142578"/>
       <use xlink:href="#DejaVuSans-74" x="227.242188"/>
       <use xlink:href="#DejaVuSans-72" x="266.451172"/>
       <use xlink:href="#DejaVuSans-f6" x="305.314453"/>
       <use xlink:href="#DejaVuSans-6d" x="366.496094"/>
       <use xlink:href="#DejaVuSans-2c" x="463.908203"/>
       <use xlink:href="#DejaVuSans-20" x="495.695312"/>
       <use xlink:href="#DejaVuSans-53" x="527.482422"/>
       <use xlink:href="#DejaVuSans-74" x="590.958984"/>
       <use xlink:href="#DejaVuSans-65" x="630.167969"/>
       <use xlink:href="#DejaVuSans-66" x="691.691406"/>
       <use xlink:href="#DejaVuSans-66" x="726.896484"/>
       <use xlink:href="#DejaVuSans-65" x="762.101562"/>
       <use xlink:href="#DejaVuSans-6e" x="823.625"/>
      </g>
     </g>
    </g>
    <g id="ytick_18">
     <g id="text_24">
      <!-- Gius, Evelyn -->
      <g transform="translate(127.181875 412.433906)scale(0.26 -0.26)">
       <use xlink:href="#DejaVuSans-47"/>
       <use xlink:href="#DejaVuSans-69" x="77.490234"/>
       <use xlink:href="#DejaVuSans-75" x="105.273438"/>
       <use xlink:href="#DejaVuSans-73" x="168.652344"/>
       <use xlink:href="#DejaVuSans-2c" x="220.751953"/>
       <use xlink:href="#DejaVuSans-20" x="252.539062"/>
       <use xlink:href="#DejaVuSans-45" x="284.326172"/>
       <use xlink:href="#DejaVuSans-76" x="347.509766"/>
       <use xlink:href="#DejaVuSans-65" x="406.689453"/>
       <use xlink:href="#DejaVuSans-6c" x="468.212891"/>
       <use xlink:href="#DejaVuSans-79" x="495.996094"/>
       <use xlink:href="#DejaVuSans-6e" x="555.175781"/>
      </g>
     </g>
    </g>
    <g id="ytick_19">
     <g id="text_25">
      <!-- Puppe, Frank -->
      <g transform="translate(119.544375 382.865906)scale(0.26 -0.26)">
       <defs>
        <path id="DejaVuSans-70" d="M 1159 525 
L 1159 -1331 
L 581 -1331 
L 581 3500 
L 1159 3500 
L 1159 2969 
Q 1341 3281 1617 3432 
Q 1894 3584 2278 3584 
Q 2916 3584 3314 3078 
Q 3713 2572 3713 1747 
Q 3713 922 3314 415 
Q 2916 -91 2278 -91 
Q 1894 -91 1617 61 
Q 1341 213 1159 525 
z
M 3116 1747 
Q 3116 2381 2855 2742 
Q 2594 3103 2138 3103 
Q 1681 3103 1420 2742 
Q 1159 2381 1159 1747 
Q 1159 1113 1420 752 
Q 1681 391 2138 391 
Q 2594 391 2855 752 
Q 3116 1113 3116 1747 
z
" transform="scale(0.015625)"/>
       </defs>
       <use xlink:href="#DejaVuSans-50"/>
       <use xlink:href="#DejaVuSans-75" x="58.552734"/>
       <use xlink:href="#DejaVuSans-70" x="121.931641"/>
       <use xlink:href="#DejaVuSans-70" x="185.408203"/>
       <use xlink:href="#DejaVuSans-65" x="248.884766"/>
       <use xlink:href="#DejaVuSans-2c" x="310.408203"/>
       <use xlink:href="#DejaVuSans-20" x="342.195312"/>
       <use xlink:href="#DejaVuSans-46" x="373.982422"/>
       <use xlink:href="#DejaVuSans-72" x="424.251953"/>
       <use xlink:href="#DejaVuSans-61" x="465.365234"/>
       <use xlink:href="#DejaVuSans-6e" x="526.644531"/>
       <use xlink:href="#DejaVuSans-6b" x="590.023438"/>
      </g>
     </g>
    </g>
    <g id="ytick_20">
     <g id="text_26">
      <!-- Weimer, Lukas -->
      <g transform="translate(97.476875 353.297906)scale(0.26 -0.26)">
       <defs>
        <path id="DejaVuSans-4c" d="M 628 4666 
L 1259 4666 
L 1259 531 
L 3531 531 
L 3531 0 
L 628 0 
L 628 4666 
z
" transform="scale(0.015625)"/>
       </defs>
       <use xlink:href="#DejaVuSans-57"/>
       <use xlink:href="#DejaVuSans-65" x="93.001953"/>
       <use xlink:href="#DejaVuSans-69" x="154.525391"/>
       <use xlink:href="#DejaVuSans-6d" x="182.308594"/>
       <use xlink:href="#DejaVuSans-65" x="279.720703"/>
       <use xlink:href="#DejaVuSans-72" x="341.244141"/>
       <use xlink:href="#DejaVuSans-2c" x="382.357422"/>
       <use xlink:href="#DejaVuSans-20" x="414.144531"/>
       <use xlink:href="#DejaVuSans-4c" x="445.931641"/>
       <use xlink:href="#DejaVuSans-75" x="499.894531"/>
       <use xlink:href="#DejaVuSans-6b" x="563.273438"/>
       <use xlink:href="#DejaVuSans-61" x="619.433594"/>
       <use xlink:href="#DejaVuSans-73" x="680.712891"/>
      </g>
     </g>
    </g>
    <g id="ytick_21">
     <g id="text_27">
      <!-- Schöch, Christof -->
      <g transform="translate(76.173125 323.729906)scale(0.26 -0.26)">
       <use xlink:href="#DejaVuSans-53"/>
       <use xlink:href="#DejaVuSans-63" x="63.476562"/>
       <use xlink:href="#DejaVuSans-68" x="118.457031"/>
       <use xlink:href="#DejaVuSans-f6" x="181.835938"/>
       <use xlink:href="#DejaVuSans-63" x="243.017578"/>
       <use xlink:href="#DejaVuSans-68" x="297.998047"/>
       <use xlink:href="#DejaVuSans-2c" x="361.376953"/>
       <use xlink:href="#DejaVuSans-20" x="393.164062"/>
       <use xlink:href="#DejaVuSans-43" x="424.951172"/>
       <use xlink:href="#DejaVuSans-68" x="494.775391"/>
       <use xlink:href="#DejaVuSans-72" x="558.154297"/>
       <use xlink:href="#DejaVuSans-69" x="599.267578"/>
       <use xlink:href="#DejaVuSans-73" x="627.050781"/>
       <use xlink:href="#DejaVuSans-74" x="679.150391"/>
       <use xlink:href="#DejaVuSans-6f" x="718.359375"/>
       <use xlink:href="#DejaVuSans-66" x="779.541016"/>
      </g>
     </g>
    </g>
    <g id="ytick_22">
     <g id="text_28">
      <!-- Mathiak, Brigitte -->
      <g transform="translate(72.366563 294.161906)scale(0.26 -0.26)">
       <use xlink:href="#DejaVuSans-4d"/>
       <use xlink:href="#DejaVuSans-61" x="86.279297"/>
       <use xlink:href="#DejaVuSans-74" x="147.558594"/>
       <use xlink:href="#DejaVuSans-68" x="186.767578"/>
       <use xlink:href="#DejaVuSans-69" x="250.146484"/>
       <use xlink:href="#DejaVuSans-61" x="277.929688"/>
       <use xlink:href="#DejaVuSans-6b" x="339.208984"/>
       <use xlink:href="#DejaVuSans-2c" x="397.119141"/>
       <use xlink:href="#DejaVuSans-20" x="428.90625"/>
       <use xlink:href="#DejaVuSans-42" x="460.693359"/>
       <use xlink:href="#DejaVuSans-72" x="529.296875"/>
       <use xlink:href="#DejaVuSans-69" x="570.410156"/>
       <use xlink:href="#DejaVuSans-67" x="598.193359"/>
       <use xlink:href="#DejaVuSans-69" x="661.669922"/>
       <use xlink:href="#DejaVuSans-74" x="689.453125"/>
       <use xlink:href="#DejaVuSans-74" x="728.662109"/>
       <use xlink:href="#DejaVuSans-65" x="767.871094"/>
      </g>
     </g>
    </g>
    <g id="ytick_23">
     <g id="text_29">
      <!-- Reiter, Nils -->
      <g transform="translate(147.039375 264.593906)scale(0.26 -0.26)">
       <use xlink:href="#DejaVuSans-52"/>
       <use xlink:href="#DejaVuSans-65" x="64.982422"/>
       <use xlink:href="#DejaVuSans-69" x="126.505859"/>
       <use xlink:href="#DejaVuSans-74" x="154.289062"/>
       <use xlink:href="#DejaVuSans-65" x="193.498047"/>
       <use xlink:href="#DejaVuSans-72" x="255.021484"/>
       <use xlink:href="#DejaVuSans-2c" x="296.134766"/>
       <use xlink:href="#DejaVuSans-20" x="327.921875"/>
       <use xlink:href="#DejaVuSans-4e" x="359.708984"/>
       <use xlink:href="#DejaVuSans-69" x="434.513672"/>
       <use xlink:href="#DejaVuSans-6c" x="462.296875"/>
       <use xlink:href="#DejaVuSans-73" x="490.080078"/>
      </g>
     </g>
    </g>
    <g id="ytick_24">
     <g id="text_30">
      <!-- Jung, Kerstin -->
      <g transform="translate(124.472188 235.025906)scale(0.26 -0.26)">
       <use xlink:href="#DejaVuSans-4a"/>
       <use xlink:href="#DejaVuSans-75" x="29.492188"/>
       <use xlink:href="#DejaVuSans-6e" x="92.871094"/>
       <use xlink:href="#DejaVuSans-67" x="156.25"/>
       <use xlink:href="#DejaVuSans-2c" x="219.726562"/>
       <use xlink:href="#DejaVuSans-20" x="251.513672"/>
       <use xlink:href="#DejaVuSans-4b" x="283.300781"/>
       <use xlink:href="#DejaVuSans-65" x="343.876953"/>
       <use xlink:href="#DejaVuSans-72" x="405.400391"/>
       <use xlink:href="#DejaVuSans-73" x="446.513672"/>
       <use xlink:href="#DejaVuSans-74" x="498.613281"/>
       <use xlink:href="#DejaVuSans-69" x="537.822266"/>
       <use xlink:href="#DejaVuSans-6e" x="565.605469"/>
      </g>
     </g>
    </g>
    <g id="ytick_25">
     <g id="text_31">
      <!-- Münster, Sander -->
      <g transform="translate(73.556875 205.457906)scale(0.26 -0.26)">
       <defs>
        <path id="DejaVuSans-fc" d="M 544 1381 
L 544 3500 
L 1119 3500 
L 1119 1403 
Q 1119 906 1312 657 
Q 1506 409 1894 409 
Q 2359 409 2629 706 
Q 2900 1003 2900 1516 
L 2900 3500 
L 3475 3500 
L 3475 0 
L 2900 0 
L 2900 538 
Q 2691 219 2414 64 
Q 2138 -91 1772 -91 
Q 1169 -91 856 284 
Q 544 659 544 1381 
z
M 1991 3584 
L 1991 3584 
z
M 2278 4850 
L 2912 4850 
L 2912 4219 
L 2278 4219 
L 2278 4850 
z
M 1056 4850 
L 1690 4850 
L 1690 4219 
L 1056 4219 
L 1056 4850 
z
" transform="scale(0.015625)"/>
       </defs>
       <use xlink:href="#DejaVuSans-4d"/>
       <use xlink:href="#DejaVuSans-fc" x="86.279297"/>
       <use xlink:href="#DejaVuSans-6e" x="149.658203"/>
       <use xlink:href="#DejaVuSans-73" x="213.037109"/>
       <use xlink:href="#DejaVuSans-74" x="265.136719"/>
       <use xlink:href="#DejaVuSans-65" x="304.345703"/>
       <use xlink:href="#DejaVuSans-72" x="365.869141"/>
       <use xlink:href="#DejaVuSans-2c" x="406.982422"/>
       <use xlink:href="#DejaVuSans-20" x="438.769531"/>
       <use xlink:href="#DejaVuSans-53" x="470.556641"/>
       <use xlink:href="#DejaVuSans-61" x="534.033203"/>
       <use xlink:href="#DejaVuSans-6e" x="595.3125"/>
       <use xlink:href="#DejaVuSans-64" x="658.691406"/>
       <use xlink:href="#DejaVuSans-65" x="722.167969"/>
       <use xlink:href="#DejaVuSans-72" x="783.691406"/>
      </g>
     </g>
    </g>
    <g id="ytick_26">
     <g id="text_32">
      <!-- Blumtritt, Jonathan -->
      <g transform="translate(41.052813 175.889906)scale(0.26 -0.26)">
       <use xlink:href="#DejaVuSans-42"/>
       <use xlink:href="#DejaVuSans-6c" x="68.603516"/>
       <use xlink:href="#DejaVuSans-75" x="96.386719"/>
       <use xlink:href="#DejaVuSans-6d" x="159.765625"/>
       <use xlink:href="#DejaVuSans-74" x="257.177734"/>
       <use xlink:href="#DejaVuSans-72" x="296.386719"/>
       <use xlink:href="#DejaVuSans-69" x="337.5"/>
       <use xlink:href="#DejaVuSans-74" x="365.283203"/>
       <use xlink:href="#DejaVuSans-74" x="404.492188"/>
       <use xlink:href="#DejaVuSans-2c" x="443.701172"/>
       <use xlink:href="#DejaVuSans-20" x="475.488281"/>
       <use xlink:href="#DejaVuSans-4a" x="507.275391"/>
       <use xlink:href="#DejaVuSans-6f" x="536.767578"/>
       <use xlink:href="#DejaVuSans-6e" x="597.949219"/>
       <use xlink:href="#DejaVuSans-61" x="661.328125"/>
       <use xlink:href="#DejaVuSans-74" x="722.607422"/>
       <use xlink:href="#DejaVuSans-68" x="761.816406"/>
       <use xlink:href="#DejaVuSans-61" x="825.195312"/>
       <use xlink:href="#DejaVuSans-6e" x="886.474609"/>
      </g>
     </g>
    </g>
    <g id="ytick_27">
     <g id="text_33">
      <!-- Busch, Anna -->
      <g transform="translate(126.170313 146.321906)scale(0.26 -0.26)">
       <use xlink:href="#DejaVuSans-42"/>
       <use xlink:href="#DejaVuSans-75" x="68.603516"/>
       <use xlink:href="#DejaVuSans-73" x="131.982422"/>
       <use xlink:href="#DejaVuSans-63" x="184.082031"/>
       <use xlink:href="#DejaVuSans-68" x="239.0625"/>
       <use xlink:href="#DejaVuSans-2c" x="302.441406"/>
       <use xlink:href="#DejaVuSans-20" x="334.228516"/>
       <use xlink:href="#DejaVuSans-41" x="366.015625"/>
       <use xlink:href="#DejaVuSans-6e" x="434.423828"/>
       <use xlink:href="#DejaVuSans-6e" x="497.802734"/>
       <use xlink:href="#DejaVuSans-61" x="561.181641"/>
      </g>
     </g>
    </g>
    <g id="ytick_28">
     <g id="text_34">
      <!-- Steyer, Timo -->
      <g transform="translate(123.180313 116.753906)scale(0.26 -0.26)">
       <use xlink:href="#DejaVuSans-53"/>
       <use xlink:href="#DejaVuSans-74" x="63.476562"/>
       <use xlink:href="#DejaVuSans-65" x="102.685547"/>
       <use xlink:href="#DejaVuSans-79" x="164.208984"/>
       <use xlink:href="#DejaVuSans-65" x="223.388672"/>
       <use xlink:href="#DejaVuSans-72" x="284.912109"/>
       <use xlink:href="#DejaVuSans-2c" x="326.025391"/>
       <use xlink:href="#DejaVuSans-20" x="357.8125"/>
       <use xlink:href="#DejaVuSans-54" x="389.599609"/>
       <use xlink:href="#DejaVuSans-69" x="447.558594"/>
       <use xlink:href="#DejaVuSans-6d" x="475.341797"/>
       <use xlink:href="#DejaVuSans-6f" x="572.753906"/>
      </g>
     </g>
    </g>
    <g id="ytick_29">
     <g id="text_35">
      <!-- Fischer, Frank -->
      <g transform="translate(108.9575 87.185906)scale(0.26 -0.26)">
       <use xlink:href="#DejaVuSans-46"/>
       <use xlink:href="#DejaVuSans-69" x="50.269531"/>
       <use xlink:href="#DejaVuSans-73" x="78.052734"/>
       <use xlink:href="#DejaVuSans-63" x="130.152344"/>
       <use xlink:href="#DejaVuSans-68" x="185.132812"/>
       <use xlink:href="#DejaVuSans-65" x="248.511719"/>
       <use xlink:href="#DejaVuSans-72" x="310.035156"/>
       <use xlink:href="#DejaVuSans-2c" x="351.148438"/>
       <use xlink:href="#DejaVuSans-20" x="382.935547"/>
       <use xlink:href="#DejaVuSans-46" x="414.722656"/>
       <use xlink:href="#DejaVuSans-72" x="464.992188"/>
       <use xlink:href="#DejaVuSans-61" x="506.105469"/>
       <use xlink:href="#DejaVuSans-6e" x="567.384766"/>
       <use xlink:href="#DejaVuSans-6b" x="630.763672"/>
      </g>
     </g>
    </g>
    <g id="ytick_30">
     <g id="text_36">
      <!-- Trilcke, Peer -->
      <g transform="translate(132.47125 57.617906)scale(0.26 -0.26)">
       <use xlink:href="#DejaVuSans-54"/>
       <use xlink:href="#DejaVuSans-72" x="46.333984"/>
       <use xlink:href="#DejaVuSans-69" x="87.447266"/>
       <use xlink:href="#DejaVuSans-6c" x="115.230469"/>
       <use xlink:href="#DejaVuSans-63" x="143.013672"/>
       <use xlink:href="#DejaVuSans-6b" x="197.994141"/>
       <use xlink:href="#DejaVuSans-65" x="252.279297"/>
       <use xlink:href="#DejaVuSans-2c" x="313.802734"/>
       <use xlink:href="#DejaVuSans-20" x="345.589844"/>
       <use xlink:href="#DejaVuSans-50" x="377.376953"/>
       <use xlink:href="#DejaVuSans-65" x="434.054688"/>
       <use xlink:href="#DejaVuSans-65" x="495.578125"/>
       <use xlink:href="#DejaVuSans-72" x="557.101562"/>
      </g>
     </g>
    </g>
   </g>
   <g id="LineCollection_1">
    <path d="M 295.004063 905.211938 
L 295.004063 905.211938 
L 295.004063 875.643938 
L 295.004063 875.643938 
" clip-path="url(#p0cee2e9c01)" style="fill: none; stroke: #c70039; stroke-width: 1.5"/>
    <path d="M 295.004063 846.075938 
L 692.821631 846.075938 
L 692.821631 816.507938 
L 295.004063 816.507938 
" clip-path="url(#p0cee2e9c01)" style="fill: none; stroke: #c70039; stroke-width: 1.5"/>
    <path d="M 295.004063 890.427938 
L 782.229089 890.427938 
L 782.229089 831.291938 
L 692.821631 831.291938 
" clip-path="url(#p0cee2e9c01)" style="fill: none; stroke: #c70039; stroke-width: 1.5"/>
   </g>
   <g id="LineCollection_2">
    <path d="M 295.004063 757.371938 
L 714.340599 757.371938 
L 714.340599 727.803938 
L 295.004063 727.803938 
" clip-path="url(#p0cee2e9c01)" style="fill: none; stroke: #ffc300; stroke-width: 1.5"/>
    <path d="M 295.004063 786.939938 
L 728.092975 786.939938 
L 728.092975 742.587938 
L 714.340599 742.587938 
" clip-path="url(#p0cee2e9c01)" style="fill: none; stroke: #ffc300; stroke-width: 1.5"/>
    <path d="M 295.004063 668.667938 
L 633.083987 668.667938 
L 633.083987 639.099938 
L 295.004063 639.099938 
" clip-path="url(#p0cee2e9c01)" style="fill: none; stroke: #ffc300; stroke-width: 1.5"/>
    <path d="M 295.004063 698.235938 
L 770.046536 698.235938 
L 770.046536 653.883938 
L 633.083987 653.883938 
" clip-path="url(#p0cee2e9c01)" style="fill: none; stroke: #ffc300; stroke-width: 1.5"/>
    <path d="M 295.004063 609.531938 
L 658.160156 609.531938 
L 658.160156 579.963938 
L 295.004063 579.963938 
" clip-path="url(#p0cee2e9c01)" style="fill: none; stroke: #ffc300; stroke-width: 1.5"/>
    <path d="M 295.004063 550.395938 
L 605.992361 550.395938 
L 605.992361 520.827938 
L 295.004063 520.827938 
" clip-path="url(#p0cee2e9c01)" style="fill: none; stroke: #ffc300; stroke-width: 1.5"/>
    <path d="M 295.004063 461.691938 
L 591.519771 461.691938 
L 591.519771 432.123938 
L 295.004063 432.123938 
" clip-path="url(#p0cee2e9c01)" style="fill: none; stroke: #ffc300; stroke-width: 1.5"/>
    <path d="M 295.004063 491.259938 
L 662.173052 491.259938 
L 662.173052 446.907938 
L 591.519771 446.907938 
" clip-path="url(#p0cee2e9c01)" style="fill: none; stroke: #ffc300; stroke-width: 1.5"/>
    <path d="M 605.992361 535.611938 
L 702.286135 535.611938 
L 702.286135 469.083938 
L 662.173052 469.083938 
" clip-path="url(#p0cee2e9c01)" style="fill: none; stroke: #ffc300; stroke-width: 1.5"/>
    <path d="M 658.160156 594.747938 
L 721.174021 594.747938 
L 721.174021 502.347938 
L 702.286135 502.347938 
" clip-path="url(#p0cee2e9c01)" style="fill: none; stroke: #ffc300; stroke-width: 1.5"/>
    <path d="M 295.004063 372.987938 
L 576.303563 372.987938 
L 576.303563 343.419938 
L 295.004063 343.419938 
" clip-path="url(#p0cee2e9c01)" style="fill: none; stroke: #ffc300; stroke-width: 1.5"/>
    <path d="M 295.004063 402.555938 
L 744.6924 402.555938 
L 744.6924 358.203938 
L 576.303563 358.203938 
" clip-path="url(#p0cee2e9c01)" style="fill: none; stroke: #ffc300; stroke-width: 1.5"/>
    <path d="M 721.174021 548.547938 
L 799.454388 548.547938 
L 799.454388 380.379938 
L 744.6924 380.379938 
" clip-path="url(#p0cee2e9c01)" style="fill: none; stroke: #ffc300; stroke-width: 1.5"/>
    <path d="M 770.046536 676.059938 
L 825.384984 676.059938 
L 825.384984 464.463938 
L 799.454388 464.463938 
" clip-path="url(#p0cee2e9c01)" style="fill: none; stroke: #ffc300; stroke-width: 1.5"/>
    <path d="M 728.092975 764.763938 
L 851.357366 764.763938 
L 851.357366 570.261938 
L 825.384984 570.261938 
" clip-path="url(#p0cee2e9c01)" style="fill: none; stroke: #ffc300; stroke-width: 1.5"/>
   </g>
   <g id="LineCollection_3">
    <path d="M 295.004063 284.283938 
L 605.992361 284.283938 
L 605.992361 254.715938 
L 295.004063 254.715938 
" clip-path="url(#p0cee2e9c01)" style="fill: none; stroke: #70c700; stroke-width: 1.5"/>
    <path d="M 295.004063 313.851938 
L 681.613247 313.851938 
L 681.613247 269.499938 
L 605.992361 269.499938 
" clip-path="url(#p0cee2e9c01)" style="fill: none; stroke: #70c700; stroke-width: 1.5"/>
    <path d="M 295.004063 225.147938 
L 591.519771 225.147938 
L 591.519771 195.579938 
L 295.004063 195.579938 
" clip-path="url(#p0cee2e9c01)" style="fill: none; stroke: #70c700; stroke-width: 1.5"/>
    <path d="M 295.004063 166.011938 
L 605.992361 166.011938 
L 605.992361 136.443938 
L 295.004063 136.443938 
" clip-path="url(#p0cee2e9c01)" style="fill: none; stroke: #70c700; stroke-width: 1.5"/>
    <path d="M 591.519771 210.363938 
L 709.065716 210.363938 
L 709.065716 151.227938 
L 605.992361 151.227938 
" clip-path="url(#p0cee2e9c01)" style="fill: none; stroke: #70c700; stroke-width: 1.5"/>
    <path d="M 681.613247 291.675938 
L 811.632316 291.675938 
L 811.632316 180.795938 
L 709.065716 180.795938 
" clip-path="url(#p0cee2e9c01)" style="fill: none; stroke: #70c700; stroke-width: 1.5"/>
   </g>
   <g id="LineCollection_4">
    <path d="M 295.004063 77.307938 
L 714.340599 77.307938 
L 714.340599 47.739938 
L 295.004063 47.739938 
" clip-path="url(#p0cee2e9c01)" style="fill: none; stroke: #001ec7; stroke-width: 1.5"/>
    <path d="M 295.004063 106.875938 
L 825.427487 106.875938 
L 825.427487 62.523938 
L 714.340599 62.523938 
" clip-path="url(#p0cee2e9c01)" style="fill: none; stroke: #001ec7; stroke-width: 1.5"/>
   </g>
   <g id="LineCollection_5">
    <path d="M 811.632316 236.235938 
L 975.976497 236.235938 
L 975.976497 84.699938 
L 825.427487 84.699938 
" clip-path="url(#p0cee2e9c01)" style="fill: none; stroke: #1f77b4; stroke-width: 1.5"/>
    <path d="M 851.357366 667.512938 
L 1046.12717 667.512938 
L 1046.12717 160.467938 
L 975.976497 160.467938 
" clip-path="url(#p0cee2e9c01)" style="fill: none; stroke: #1f77b4; stroke-width: 1.5"/>
    <path d="M 782.229089 860.859938 
L 1145.289777 860.859938 
L 1145.289777 413.990438 
L 1046.12717 413.990438 
" clip-path="url(#p0cee2e9c01)" style="fill: none; stroke: #1f77b4; stroke-width: 1.5"/>
   </g>
   <g id="patch_3">
    <path d="M 295.004063 919.995938 
L 295.004063 32.955938 
" style="fill: none; stroke: #000000; stroke-width: 0.8; stroke-linejoin: miter; stroke-linecap: square"/>
   </g>
   <g id="patch_4">
    <path d="M 1187.804062 919.995938 
L 1187.804062 32.955938 
" style="fill: none; stroke: #000000; stroke-width: 0.8; stroke-linejoin: miter; stroke-linecap: square"/>
   </g>
   <g id="patch_5">
    <path d="M 295.004063 919.995938 
L 1187.804062 919.995938 
" style="fill: none; stroke: #000000; stroke-width: 0.8; stroke-linejoin: miter; stroke-linecap: square"/>
   </g>
   <g id="patch_6">
    <path d="M 295.004063 32.955938 
L 1187.804062 32.955938 
" style="fill: none; stroke: #000000; stroke-width: 0.8; stroke-linejoin: miter; stroke-linecap: square"/>
   </g>
   <g id="text_37">
    <!-- Closeness of Authors Calculated by Topic Vectors -->
    <g transform="translate(422.536406 26.955938)scale(0.26 -0.26)">
     <defs>
      <path id="DejaVuSans-62" d="M 3116 1747 
Q 3116 2381 2855 2742 
Q 2594 3103 2138 3103 
Q 1681 3103 1420 2742 
Q 1159 2381 1159 1747 
Q 1159 1113 1420 752 
Q 1681 391 2138 391 
Q 2594 391 2855 752 
Q 3116 1113 3116 1747 
z
M 1159 2969 
Q 1341 3281 1617 3432 
Q 1894 3584 2278 3584 
Q 2916 3584 3314 3078 
Q 3713 2572 3713 1747 
Q 3713 922 3314 415 
Q 2916 -91 2278 -91 
Q 1894 -91 1617 61 
Q 1341 213 1159 525 
L 1159 0 
L 581 0 
L 581 4863 
L 1159 4863 
L 1159 2969 
z
" transform="scale(0.015625)"/>
     </defs>
     <use xlink:href="#DejaVuSans-43"/>
     <use xlink:href="#DejaVuSans-6c" x="69.824219"/>
     <use xlink:href="#DejaVuSans-6f" x="97.607422"/>
     <use xlink:href="#DejaVuSans-73" x="158.789062"/>
     <use xlink:href="#DejaVuSans-65" x="210.888672"/>
     <use xlink:href="#DejaVuSans-6e" x="272.412109"/>
     <use xlink:href="#DejaVuSans-65" x="335.791016"/>
     <use xlink:href="#DejaVuSans-73" x="397.314453"/>
     <use xlink:href="#DejaVuSans-73" x="449.414062"/>
     <use xlink:href="#DejaVuSans-20" x="501.513672"/>
     <use xlink:href="#DejaVuSans-6f" x="533.300781"/>
     <use xlink:href="#DejaVuSans-66" x="594.482422"/>
     <use xlink:href="#DejaVuSans-20" x="629.6875"/>
     <use xlink:href="#DejaVuSans-41" x="661.474609"/>
     <use xlink:href="#DejaVuSans-75" x="729.882812"/>
     <use xlink:href="#DejaVuSans-74" x="793.261719"/>
     <use xlink:href="#DejaVuSans-68" x="832.470703"/>
     <use xlink:href="#DejaVuSans-6f" x="895.849609"/>
     <use xlink:href="#DejaVuSans-72" x="957.03125"/>
     <use xlink:href="#DejaVuSans-73" x="998.144531"/>
     <use xlink:href="#DejaVuSans-20" x="1050.244141"/>
     <use xlink:href="#DejaVuSans-43" x="1082.03125"/>
     <use xlink:href="#DejaVuSans-61" x="1151.855469"/>
     <use xlink:href="#DejaVuSans-6c" x="1213.134766"/>
     <use xlink:href="#DejaVuSans-63" x="1240.917969"/>
     <use xlink:href="#DejaVuSans-75" x="1295.898438"/>
     <use xlink:href="#DejaVuSans-6c" x="1359.277344"/>
     <use xlink:href="#DejaVuSans-61" x="1387.060547"/>
     <use xlink:href="#DejaVuSans-74" x="1448.339844"/>
     <use xlink:href="#DejaVuSans-65" x="1487.548828"/>
     <use xlink:href="#DejaVuSans-64" x="1549.072266"/>
     <use xlink:href="#DejaVuSans-20" x="1612.548828"/>
     <use xlink:href="#DejaVuSans-62" x="1644.335938"/>
     <use xlink:href="#DejaVuSans-79" x="1707.8125"/>
     <use xlink:href="#DejaVuSans-20" x="1766.992188"/>
     <use xlink:href="#DejaVuSans-54" x="1798.779297"/>
     <use xlink:href="#DejaVuSans-6f" x="1842.863281"/>
     <use xlink:href="#DejaVuSans-70" x="1904.044922"/>
     <use xlink:href="#DejaVuSans-69" x="1967.521484"/>
     <use xlink:href="#DejaVuSans-63" x="1995.304688"/>
     <use xlink:href="#DejaVuSans-20" x="2050.285156"/>
     <use xlink:href="#DejaVuSans-56" x="2082.072266"/>
     <use xlink:href="#DejaVuSans-65" x="2142.730469"/>
     <use xlink:href="#DejaVuSans-63" x="2204.253906"/>
     <use xlink:href="#DejaVuSans-74" x="2259.234375"/>
     <use xlink:href="#DejaVuSans-6f" x="2298.443359"/>
     <use xlink:href="#DejaVuSans-72" x="2359.625"/>
     <use xlink:href="#DejaVuSans-73" x="2400.738281"/>
    </g>
   </g>
  </g>
 </g>
 <defs>
  <clipPath id="p0cee2e9c01">
   <rect x="295.004063" y="32.955938" width="892.8" height="887.04"/>
  </clipPath>
 </defs>
</svg>
